<?xml version="1.0" standalone="no"?>
<!DOCTYPE svg PUBLIC "-//W3C//DTD SVG 20010904//EN"
 "http://www.w3.org/TR/2001/REC-SVG-20010904/DTD/svg10.dtd">
<svg version="1.0" xmlns="http://www.w3.org/2000/svg"
 width="289.000000pt" height="174.000000pt" viewBox="0 0 289.000000 174.000000"
 preserveAspectRatio="xMidYMid meet">

<g transform="translate(0.000000,174.000000) scale(0.100000,-0.100000)"
fill="#000000" stroke="none">
<path d="M2280 1730 c-74 -12 -177 -50 -247 -91 -71 -42 -177 -146 -226 -221
-20 -31 -109 -213 -197 -404 -89 -192 -162 -350 -164 -351 -1 -2 -69 142 -151
319 -81 178 -159 346 -172 373 -78 154 -214 272 -384 331 l-84 29 -327 3 -328
3 0 -686 0 -687 323 5 c355 4 372 7 502 71 78 39 162 110 230 193 l45 55 55
-119 c31 -65 99 -212 153 -327 53 -115 105 -214 114 -219 41 -26 58 0 213 337
l150 326 24 -32 c14 -18 59 -68 102 -110 207 -204 526 -256 792 -129 72 35
180 119 185 144 2 12 -29 51 -89 113 -51 51 -96 94 -100 94 -3 0 -33 -16 -65
-35 -210 -127 -424 -85 -543 105 -48 76 -64 140 -59 244 4 103 32 177 93 252
74 90 203 142 321 129 65 -7 187 -58 213 -88 27 -34 55 -20 145 73 47 49 86
95 86 101 0 41 -167 145 -288 180 -77 22 -242 32 -322 19z m-1740 -301 c86
-13 178 -57 230 -109 80 -80 120 -217 100 -343 -36 -232 -188 -343 -463 -335
l-102 3 -3 385 c-1 212 0 391 3 397 6 16 142 17 235 2z"/>
</g>
</svg>
