<?xml version="1.0" standalone="no"?>
<!DOCTYPE svg PUBLIC "-//W3C//DTD SVG 20010904//EN"
 "http://www.w3.org/TR/2001/REC-SVG-20010904/DTD/svg10.dtd">
<svg version="1.0" xmlns="http://www.w3.org/2000/svg"
 width="512.000000pt" height="512.000000pt" viewBox="0 0 512.000000 512.000000"
 preserveAspectRatio="xMidYMid meet">

<g transform="translate(0.000000,512.000000) scale(0.100000,-0.100000)"
fill="#000000" stroke="none">
<path d="M2335 5109 c-529 -49 -1034 -264 -1441 -612 -732 -627 -1051 -1624
-818 -2562 52 -213 141 -440 244 -625 52 -95 204 -325 220 -335 5 -3 138 90
297 206 158 117 334 246 391 287 103 75 103 75 84 96 -79 88 -206 325 -258
482 -60 185 -78 305 -78 514 0 161 4 202 27 311 59 281 174 516 359 737 264
315 689 529 1110 558 l98 7 2 -305 3 -305 455 338 c250 187 580 432 733 546
153 113 274 209 270 214 -30 28 -220 140 -328 193 -423 209 -905 298 -1370
255z"/>
<path d="M4200 3878 c-201 -148 -374 -276 -385 -284 -14 -10 -17 -18 -10 -28
83 -120 131 -199 174 -285 292 -580 201 -1282 -228 -1778 -275 -318 -681 -519
-1105 -549 l-96 -7 -2 304 -3 305 -728 -541 c-400 -298 -729 -544 -732 -547
-7 -6 114 -86 215 -142 270 -150 563 -249 875 -298 186 -29 539 -31 720 -5
818 119 1502 588 1904 1304 425 757 424 1732 -3 2490 -63 113 -206 325 -221
329 -5 1 -174 -119 -375 -268z"/>
</g>
</svg>
