<?xml version="1.0" standalone="no"?>
<!DOCTYPE svg PUBLIC "-//W3C//DTD SVG 20010904//EN"
 "http://www.w3.org/TR/2001/REC-SVG-20010904/DTD/svg10.dtd">
<svg version="1.0" xmlns="http://www.w3.org/2000/svg"
 width="600.000000pt" height="600.000000pt" viewBox="0 0 600.000000 600.000000"
 preserveAspectRatio="xMidYMid meet">

<g transform="translate(0.000000,600.000000) scale(0.100000,-0.100000)"
fill="#000000" stroke="none">
<path d="M0 3000 l0 -3000 3000 0 3000 0 0 3000 0 3000 -3000 0 -3000 0 0
-3000z m2768 1752 c482 -105 874 -407 1092 -842 24 -47 53 -113 66 -147 l24
-63 -118 0 -118 0 -57 113 c-103 204 -273 395 -459 518 -114 75 -157 97 -278
142 -190 71 -431 99 -644 74 l-68 -8 6 98 c4 54 9 106 12 115 7 24 36 27 254
23 148 -3 217 -8 288 -23z m-342 -399 c-4 -38 -9 -89 -12 -115 l-6 -48 -88 0
c-332 0 -688 -161 -937 -424 -429 -453 -491 -1139 -151 -1663 83 -128 262
-312 377 -387 274 -181 574 -254 915 -223 l88 8 -5 -53 c-4 -29 -9 -81 -12
-115 l-7 -61 -86 -8 c-48 -4 -143 -4 -212 -1 -715 32 -1319 549 -1471 1259
-26 122 -36 372 -20 503 36 279 137 536 299 755 76 103 250 272 355 347 260
183 577 287 896 292 l83 1 -6 -67z m384 -15 c233 -74 442 -222 590 -419 51
-68 130 -198 130 -213 0 -3 -57 -6 -127 -6 l-128 0 -24 41 c-38 67 -178 206
-268 266 -94 62 -190 106 -296 133 -65 16 -72 20 -70 42 1 12 5 63 8 111 l7
88 41 -6 c23 -4 85 -21 137 -37z m-180 -338 c47 -11 111 -30 143 -41 l57 -22
-6 -66 c-3 -36 -9 -89 -13 -118 l-6 -52 -45 20 c-25 11 -83 32 -130 47 -78 24
-100 26 -260 26 -154 1 -185 -2 -254 -22 -163 -47 -292 -121 -415 -237 -92
-87 -149 -167 -206 -287 -67 -142 -89 -243 -89 -413 0 -152 12 -217 66 -359
104 -271 388 -515 671 -577 l59 -13 -7 -105 c-4 -58 -10 -109 -14 -113 -9 -10
-150 24 -237 57 -312 117 -572 379 -691 695 -50 133 -64 208 -70 375 -6 180 7
275 57 427 138 413 504 721 940 793 118 20 338 13 450 -15z m-117 -424 c41 -8
97 -26 124 -39 52 -27 143 -116 143 -141 0 -9 -29 -31 -71 -51 l-70 -36 -44
39 c-102 90 -291 98 -372 17 -28 -28 -33 -40 -33 -78 0 -38 5 -49 30 -70 30
-26 113 -49 220 -62 142 -17 268 -70 321 -134 73 -89 77 -254 9 -354 -34 -50
-102 -96 -182 -125 -63 -22 -90 -25 -193 -26 -140 0 -231 22 -311 77 -50 35
-124 128 -124 157 0 23 150 101 158 81 13 -38 87 -101 140 -122 83 -31 213
-30 279 2 84 42 115 118 74 185 -24 40 -74 63 -175 80 -242 43 -306 65 -366
126 -47 47 -63 86 -68 168 -4 63 -1 85 18 128 63 145 270 220 493 178z m741
-448 c95 -246 153 -383 158 -374 7 12 225 569 280 714 l19 52 105 0 c57 0 104
-4 104 -8 0 -5 -67 -170 -149 -368 -82 -197 -172 -417 -201 -489 -29 -71 -58
-136 -63 -142 -10 -14 -174 -18 -193 -5 -6 4 -24 41 -41 82 -17 41 -109 262
-203 490 -95 228 -175 421 -177 428 -4 10 18 12 103 10 l108 -3 150 -387z
m1256 177 c85 -118 157 -215 160 -214 3 0 75 97 160 214 l155 215 108 0 107 0
0 -505 0 -505 -95 0 -95 0 -2 360 -3 360 -160 -213 c-104 -137 -167 -213 -180
-214 -16 -2 -54 44 -175 212 -85 118 -158 214 -162 215 -5 0 -8 -162 -8 -360
l0 -360 -95 0 -95 0 0 505 0 505 113 -1 112 0 155 -214z m-1292 -1008 c-115
-106 -302 -203 -474 -247 -222 -57 -455 -48 -676 26 -75 25 -78 27 -78 57 0
43 18 199 24 204 2 2 22 -5 44 -16 22 -11 80 -33 129 -48 81 -24 102 -27 263
-27 161 0 182 2 260 26 47 15 110 38 140 52 53 25 62 26 240 25 l185 0 -57
-52z m552 45 c0 -23 -130 -179 -227 -272 -214 -207 -459 -341 -743 -406 -106
-24 -394 -53 -406 -41 -4 4 -3 55 2 114 l9 108 110 6 c204 13 352 51 530 139
144 71 267 161 378 275 l82 84 133 1 c72 0 132 -4 132 -8z"/>
</g>
</svg>
