<?xml version="1.0" standalone="no"?>
<!DOCTYPE svg PUBLIC "-//W3C//DTD SVG 20010904//EN"
 "http://www.w3.org/TR/2001/REC-SVG-20010904/DTD/svg10.dtd">
<svg version="1.0" xmlns="http://www.w3.org/2000/svg"
 width="200.000000pt" height="200.000000pt" viewBox="0 0 200.000000 200.000000"
 preserveAspectRatio="xMidYMid meet">

<g transform="translate(0.000000,200.000000) scale(0.100000,-0.100000)"
fill="#000000" stroke="none">
<path d="M845 1856 c-164 -32 -306 -102 -424 -209 -24 -21 -40 -41 -37 -44 3
-3 116 -8 251 -11 135 -3 243 -7 240 -10 -3 -3 -125 -9 -273 -13 l-267 -8 -23
-28 c-61 -76 -129 -217 -157 -328 -9 -33 -18 -99 -22 -147 l-6 -88 102 0 c61
0 101 -4 101 -10 0 -6 -40 -10 -101 -10 l-100 0 6 -47 c12 -88 46 -207 78
-273 l32 -65 175 -5 c200 -6 177 -20 -33 -20 l-128 0 32 -47 c48 -69 147 -164
224 -216 l68 -46 -34 -5 c-19 -3 -68 -10 -109 -16 -159 -23 -315 -61 -297 -72
16 -10 1698 -10 1715 0 16 11 -124 45 -268 67 -58 8 -120 18 -139 21 l-34 5
60 39 c71 47 156 120 148 128 -3 3 -51 9 -108 12 l-102 7 105 2 c58 1 114 4
125 7 27 8 80 81 133 184 l44 85 -158 10 -159 10 159 6 c118 5 161 10 167 20
22 35 34 134 33 269 0 127 -4 156 -27 233 -15 49 -38 110 -52 136 l-24 48
-303 9 c-322 9 -328 20 -13 24 94 1 196 5 228 9 l59 6 -33 45 c-42 58 -135
149 -193 189 -45 31 -45 31 -188 32 -79 1 -183 4 -233 8 l-90 8 90 1 c50 1
141 5 204 9 l114 6 -54 24 c-141 62 -357 88 -504 59z m-265 -596 c271 -18 869
-9 1023 16 l39 6 -18 -33 c-10 -19 -23 -52 -29 -74 l-12 -40 -262 -3 -261 -2
0 -50 0 -50 104 0 104 0 12 30 c14 35 37 50 74 50 24 0 26 -4 26 -40 l0 -39
68 -3 68 -3 -8 -32 -9 -33 -499 0 -499 0 -9 33 -8 32 68 3 68 3 0 39 c0 38 2
40 30 40 34 0 80 -38 80 -65 0 -13 15 -15 108 -13 l107 3 3 47 3 48 -268 2
-267 3 -6 30 c-4 17 -17 50 -29 73 l-22 44 38 -6 c21 -3 103 -10 183 -16z
m148 -672 c2 -327 1 -348 -15 -348 -10 0 -35 -3 -55 -6 l-38 -7 0 357 0 357
53 -3 52 -3 3 -347z m652 -4 l0 -357 -37 7 c-21 3 -46 6 -55 6 -17 0 -18 23
-18 343 0 189 3 347 7 350 3 4 28 7 55 7 l48 0 0 -356z"/>
</g>
</svg>
