<?xml version="1.0" standalone="no"?>
<!DOCTYPE svg PUBLIC "-//W3C//DTD SVG 20010904//EN"
 "http://www.w3.org/TR/2001/REC-SVG-20010904/DTD/svg10.dtd">
<svg version="1.0" xmlns="http://www.w3.org/2000/svg"
 width="225.000000pt" height="225.000000pt" viewBox="0 0 225.000000 225.000000"
 preserveAspectRatio="xMidYMid meet">

<g transform="translate(0.000000,225.000000) scale(0.100000,-0.100000)"
fill="#000000" stroke="none">
<path d="M735 2112 c-38 -18 -115 -92 -115 -111 0 -4 -33 -10 -73 -13 -85 -5
-160 -38 -220 -96 -58 -55 -80 -105 -85 -192 -4 -70 -1 -80 30 -142 l34 -67
-55 -28 c-66 -32 -140 -103 -172 -164 -34 -66 -38 -176 -9 -252 27 -73 104
-153 182 -191 l58 -28 -20 -28 c-51 -72 -66 -200 -31 -276 52 -115 180 -194
312 -194 38 0 49 -4 54 -19 10 -31 90 -99 131 -110 148 -41 281 26 314 159 7
31 10 282 8 825 l-3 781 -26 49 c-38 74 -99 109 -198 113 -58 2 -86 -2 -116
-16z m209 -56 c26 -13 48 -37 63 -65 23 -44 23 -48 23 -373 l0 -328 -80 0 -80
0 0 219 0 219 36 36 c33 33 36 41 31 74 -13 80 -101 109 -158 53 -17 -18 -29
-40 -29 -56 0 -36 26 -82 50 -90 19 -6 20 -15 20 -231 l0 -224 -76 0 c-70 0
-78 -2 -105 -29 -23 -23 -29 -39 -29 -70 l0 -41 -79 0 c-77 0 -80 1 -114 35
-45 45 -86 47 -128 6 -40 -41 -40 -91 0 -132 42 -41 83 -39 128 6 34 34 37 35
114 35 l79 0 0 -201 0 -200 -35 -33 c-56 -53 -46 -124 22 -152 80 -34 158 48
119 125 -9 17 -25 35 -36 41 -19 10 -20 21 -20 273 0 191 3 266 12 275 8 8 64
12 185 12 l173 0 0 -432 c0 -418 -1 -433 -21 -475 -14 -29 -35 -52 -63 -68
-81 -47 -76 -66 -76 304 0 321 0 330 20 336 21 7 50 53 50 80 0 30 -29 72 -59
85 -64 26 -131 -19 -131 -88 0 -27 8 -42 35 -68 l35 -33 0 -322 0 -321 -32 6
c-47 9 -92 43 -121 93 l-27 43 -67 0 c-142 0 -264 95 -287 223 -10 52 14 130
58 192 41 57 39 62 -38 90 -72 26 -146 91 -180 158 -73 143 -5 305 159 383 42
20 66 24 149 24 99 0 100 0 125 -30 37 -44 87 -50 128 -16 39 33 50 74 29 115
-33 63 -101 70 -152 16 l-33 -36 -88 3 -88 3 -33 64 c-57 114 -39 218 52 298
55 49 119 73 192 73 69 0 80 5 106 52 51 89 172 118 272 64z m-66 -198 c18
-18 15 -43 -8 -63 -17 -15 -24 -16 -45 -7 -43 20 -28 82 20 82 12 0 26 -5 33
-12z m-208 -358 c15 -29 3 -59 -26 -66 -30 -8 -54 11 -54 40 0 46 59 64 80 26z
m-286 -346 c9 -8 16 -22 16 -29 0 -7 -7 -21 -16 -29 -30 -30 -74 -13 -74 29 0
42 44 59 74 29z m490 -140 c30 -30 13 -74 -29 -74 -27 0 -45 18 -45 45 0 42
44 59 74 29z m-206 -386 c18 -18 15 -43 -8 -63 -17 -15 -24 -16 -45 -7 -43 20
-28 82 20 82 12 0 26 -5 33 -12z"/>
<path d="M1291 2104 c-57 -29 -92 -73 -111 -139 -8 -29 -10 -264 -8 -831 l3
-791 30 -48 c55 -89 171 -127 289 -94 41 11 121 79 131 110 5 16 16 19 59 19
93 0 193 45 254 114 57 65 67 93 67 186 0 76 -3 91 -31 142 l-31 57 56 27 c69
34 139 103 171 169 36 72 36 198 0 270 -31 64 -105 136 -175 170 l-55 27 20
28 c55 77 66 201 26 285 -48 102 -161 174 -288 183 -37 2 -68 9 -68 13 0 19
-77 93 -115 110 -62 29 -158 25 -224 -7z m89 -345 l0 -321 -29 -27 c-56 -52
-49 -128 15 -158 62 -30 134 15 134 83 0 29 -7 44 -35 70 l-35 33 0 320 c0
361 -5 340 76 300 30 -14 53 -36 73 -70 l31 -49 63 0 c83 0 145 -22 202 -72
108 -95 119 -218 31 -343 -39 -54 -36 -69 14 -80 42 -9 143 -77 173 -117 62
-81 77 -184 39 -270 -26 -61 -93 -127 -162 -161 -48 -24 -65 -27 -155 -27
-100 0 -101 0 -123 29 -41 56 -124 49 -157 -13 -33 -62 11 -136 81 -136 29 0
44 7 70 35 l33 36 88 -3 88 -3 33 -64 c57 -114 39 -218 -51 -297 -55 -48 -127
-74 -208 -74 -57 0 -59 -1 -83 -37 -36 -57 -70 -84 -124 -98 -92 -24 -179 10
-219 84 -23 44 -23 48 -23 373 l0 328 80 0 80 0 0 -219 0 -219 -36 -36 c-33
-33 -36 -41 -31 -74 13 -80 101 -109 158 -53 17 18 29 40 29 56 0 36 -26 82
-50 90 -19 6 -20 15 -20 231 l0 224 76 0 c70 0 78 2 105 29 23 23 29 39 29 70
l0 41 83 0 c78 0 84 -2 96 -24 43 -80 171 -44 171 49 0 45 -45 95 -85 95 -36
0 -82 -26 -90 -50 -6 -18 -15 -20 -91 -20 l-84 0 0 201 0 200 35 33 c54 51 47
119 -16 152 -78 40 -165 -46 -125 -125 9 -17 25 -35 36 -41 19 -10 20 -21 20
-273 0 -191 -3 -266 -12 -275 -8 -8 -64 -12 -185 -12 l-173 0 0 433 0 434 23
44 c23 44 83 88 120 89 16 0 17 -22 17 -321z m261 1 c37 -20 18 -80 -26 -80
-43 0 -58 39 -28 72 19 21 27 22 54 8z m-203 -392 c17 -17 15 -53 -3 -68 -38
-31 -96 27 -65 65 15 18 51 20 68 3z m490 -140 c27 -27 7 -78 -29 -78 -21 0
-49 26 -49 45 0 35 53 58 78 33z m-280 -350 c7 -7 12 -21 12 -33 0 -44 -60
-63 -80 -26 -14 27 -13 37 6 55 18 19 45 21 62 4z m-217 -348 c37 -20 18 -80
-26 -80 -42 0 -59 44 -29 74 18 19 28 20 55 6z"/>
</g>
</svg>
