<?xml version="1.0" standalone="no"?>
<!DOCTYPE svg PUBLIC "-//W3C//DTD SVG 20010904//EN"
 "http://www.w3.org/TR/2001/REC-SVG-20010904/DTD/svg10.dtd">
<svg version="1.0" xmlns="http://www.w3.org/2000/svg"
 width="225.000000pt" height="225.000000pt" viewBox="0 0 225.000000 225.000000"
 preserveAspectRatio="xMidYMid meet">

<g transform="translate(0.000000,225.000000) scale(0.100000,-0.100000)"
fill="#000000" stroke="none">
<path d="M998 2060 c-151 -24 -298 -82 -412 -164 -89 -64 -214 -200 -265 -290
-53 -94 -97 -217 -113 -320 -10 -64 -9 -79 2 -86 26 -16 38 2 50 78 30 185
111 343 245 477 176 175 375 258 620 258 264 -1 511 -116 673 -317 49 -60 132
-204 147 -254 7 -23 6 -23 -55 8 -63 32 -80 32 -80 0 0 -15 25 -32 98 -69 54
-27 103 -46 109 -43 5 4 31 49 58 100 41 80 46 96 34 107 -19 19 -32 9 -62
-52 -27 -53 -47 -75 -47 -51 0 21 -66 153 -107 216 -125 188 -337 333 -565
387 -80 19 -256 27 -330 15z"/>
<path d="M705 1629 c-46 -41 -63 -94 -46 -151 l13 -41 -99 -99 -99 -99 -45 12
c-60 16 -94 6 -141 -40 -34 -34 -38 -44 -38 -87 0 -58 26 -106 69 -129 33 -17
103 -20 130 -6 14 8 36 -9 120 -93 l103 -104 -12 -36 c-34 -103 56 -202 164
-182 43 8 93 56 104 99 8 30 16 35 165 94 157 61 157 61 196 46 70 -28 152 7
181 76 11 28 56 50 262 127 11 3 28 -2 44 -15 20 -15 41 -21 80 -21 45 0 59 5
89 31 20 18 39 47 45 70 37 135 -122 233 -230 142 l-31 -26 -102 40 -102 41
-7 41 c-13 79 -63 121 -145 121 -44 0 -58 -5 -85 -28 l-31 -29 -151 60 c-168
67 -176 71 -176 99 0 62 -67 118 -142 118 -39 0 -54 -6 -83 -31z m149 -45 c38
-39 36 -93 -5 -128 -17 -14 -39 -26 -50 -26 -37 0 -77 29 -89 64 -29 89 78
155 144 90z m235 -189 l151 -60 0 -38 c0 -21 5 -48 11 -59 9 -17 6 -25 -20
-52 l-31 -31 -144 144 c-80 80 -142 149 -140 153 3 5 9 8 14 6 4 -2 76 -30
159 -63z m-294 -10 c22 0 49 3 60 7 16 6 47 -19 165 -132 l145 -139 -36 -36
-35 -36 -82 26 c-80 25 -82 27 -82 58 0 74 -75 134 -153 124 -51 -7 -87 -33
-110 -80 -18 -36 -20 -37 -77 -37 -55 0 -58 1 -70 31 -13 31 -13 31 86 130 88
88 102 99 124 92 14 -4 43 -7 65 -8z m641 -19 c74 -63 -9 -186 -96 -141 -35
18 -50 43 -50 85 0 71 89 106 146 56z m190 -185 c79 -30 82 -33 87 -68 4 -21
3 -41 -1 -45 -9 -9 -213 -88 -226 -88 -6 0 -18 15 -26 32 -20 44 -71 71 -128
70 -30 0 -54 6 -69 17 l-22 18 32 31 c31 30 35 31 70 20 46 -14 103 1 136 36
18 19 28 23 45 16 11 -4 58 -22 102 -39z m-1201 17 c29 -13 55 -55 55 -88 0
-35 -53 -80 -93 -80 -66 0 -109 84 -71 138 27 39 67 50 109 30z m433 -24 c73
-83 -40 -193 -124 -120 -41 35 -39 89 5 128 27 24 39 29 65 24 17 -3 41 -17
54 -32z m1051 10 c63 -53 28 -154 -54 -154 -82 0 -117 101 -54 154 17 14 41
26 54 26 13 0 37 -12 54 -26z m-1245 -118 c3 -13 22 -38 42 -56 35 -30 41 -32
96 -28 48 4 64 10 91 35 l32 31 64 -20 64 -20 -88 -88 c-79 -80 -90 -87 -112
-79 -31 12 -99 12 -122 0 -14 -8 -36 9 -120 93 -96 97 -101 104 -92 129 10 25
14 27 75 27 59 0 64 -2 70 -24z m564 -35 c-7 -9 -13 -17 -14 -19 -1 -1 -14 2
-29 8 l-28 11 23 24 c22 23 25 24 42 8 14 -13 16 -19 6 -32z m176 -32 c30 -35
32 -58 11 -98 -45 -87 -185 -33 -161 62 17 71 104 91 150 36z m-202 -80 c4
-24 4 -46 0 -50 -4 -4 -65 -30 -137 -58 -114 -44 -131 -48 -142 -35 -9 13 6
32 90 113 l101 98 40 -12 c38 -11 41 -16 48 -56z m-347 -144 c54 -53 15 -149
-59 -149 -81 0 -122 99 -62 150 37 32 89 32 121 -1z"/>
<path d="M2013 1052 c-6 -4 -16 -37 -22 -74 -50 -291 -219 -520 -476 -648
-214 -106 -458 -122 -679 -43 -146 52 -277 142 -378 261 -59 69 -158 245 -146
258 4 3 32 -3 63 -16 58 -24 89 -21 83 7 -3 17 -174 93 -209 93 -12 0 -28 -29
-58 -102 -36 -89 -39 -104 -27 -117 12 -12 18 -12 30 -1 9 7 16 16 16 20 0 5
9 30 20 56 l20 47 48 -94 c55 -110 118 -195 199 -269 299 -275 737 -324 1092
-123 166 94 332 285 399 459 30 79 62 211 62 258 0 25 -19 39 -37 28z"/>
</g>
</svg>
